<svg width="93" height="31" viewBox="0 0 93 31" fill="none" xmlns="http://www.w3.org/2000/svg">
<path d="M16.376 3.204V7.012H11V23H6.184V7.012H0.864V3.204H16.376ZM23.1822 10.316C23.7795 9.364 24.5449 8.608 25.4782 8.048C26.4302 7.488 27.4569 7.208 28.5582 7.208V12.332H27.1862C25.9169 12.332 24.9275 12.6027 24.2182 13.144C23.5275 13.6853 23.1822 14.6 23.1822 15.888V23H18.3942V7.376H23.1822V10.316ZM30.1142 2.98C30.1142 2.252 30.3755 1.65467 30.8982 1.188C31.4208 0.702665 32.1115 0.459998 32.9702 0.459998C33.8288 0.459998 34.5195 0.702665 35.0422 1.188C35.5648 1.65467 35.8262 2.252 35.8262 2.98C35.8262 3.68933 35.5648 4.28667 35.0422 4.772C34.5195 5.23867 33.8288 5.472 32.9702 5.472C32.1115 5.472 31.4208 5.23867 30.8982 4.772C30.3755 4.28667 30.1142 3.68933 30.1142 2.98ZM35.3502 7.376V23H30.5622V7.376H35.3502ZM48.3999 7.18C49.6879 7.18 50.8359 7.50667 51.8439 8.16C52.8706 8.79467 53.6732 9.71867 54.2519 10.932C54.8492 12.1267 55.1479 13.5453 55.1479 15.188C55.1479 16.812 54.8492 18.2307 54.2519 19.444C53.6732 20.6573 52.8706 21.5907 51.8439 22.244C50.8359 22.8787 49.6879 23.196 48.3999 23.196C47.2052 23.196 46.1786 22.9253 45.3199 22.384C44.4612 21.8427 43.8359 21.1053 43.4439 20.172V30.448H38.6559V7.376H43.4439V10.204C43.8359 9.27067 44.4612 8.53333 45.3199 7.992C46.1786 7.45067 47.2052 7.18 48.3999 7.18ZM46.8599 11.38C45.8519 11.38 45.0212 11.7253 44.3679 12.416C43.7332 13.088 43.4159 14.012 43.4159 15.188C43.4159 16.3453 43.7332 17.2693 44.3679 17.96C45.0212 18.6507 45.8519 18.996 46.8599 18.996C47.8866 18.996 48.7079 18.66 49.3239 17.988C49.9586 17.316 50.2759 16.3827 50.2759 15.188C50.2759 13.9933 49.9586 13.06 49.3239 12.388C48.7079 11.716 47.8866 11.38 46.8599 11.38ZM63.5685 7.18C64.7631 7.18 65.7898 7.45067 66.6485 7.992C67.5071 8.53333 68.1418 9.27067 68.5525 10.204V7.376H73.3125V23H68.5525V20.172C68.1418 21.1053 67.5071 21.8427 66.6485 22.384C65.7898 22.9253 64.7631 23.196 63.5685 23.196C62.2805 23.196 61.1231 22.8787 60.0965 22.244C59.0885 21.5907 58.2858 20.6573 57.6885 19.444C57.1098 18.2307 56.8205 16.812 56.8205 15.188C56.8205 13.5453 57.1098 12.1267 57.6885 10.932C58.2858 9.71867 59.0885 8.79467 60.0965 8.16C61.1231 7.50667 62.2805 7.18 63.5685 7.18ZM65.1085 11.38C64.0818 11.38 63.2511 11.716 62.6165 12.388C62.0005 13.06 61.6925 13.9933 61.6925 15.188C61.6925 16.3827 62.0005 17.316 62.6165 17.988C63.2511 18.66 64.0818 18.996 65.1085 18.996C66.1165 18.996 66.9378 18.6507 67.5725 17.96C68.2258 17.2693 68.5525 16.3453 68.5525 15.188C68.5525 14.012 68.2258 13.088 67.5725 12.416C66.9378 11.7253 66.1165 11.38 65.1085 11.38ZM80.221 7.376L83.973 16.952L87.473 7.376H92.765L83.021 30.448H77.757L81.425 22.412L74.873 7.376H80.221Z" fill="#3C50E0"/>
</svg>
