<svg width="188" height="188" viewBox="0 0 188 188" fill="none" xmlns="http://www.w3.org/2000/svg">
<rect x="27.7027" y="66.0912" width="131.891" height="55.0881" rx="14.2236" fill="#242A3E"/>
<path d="M90.732 82.456V88H90.004V83.576L88.236 88H87.588L85.812 83.592V88H85.084V82.456H85.956L87.924 87.112L89.86 82.456H90.732ZM93.8885 83.552C94.3098 83.552 94.6858 83.6427 95.0165 83.824C95.3525 84.0053 95.6138 84.2667 95.8005 84.608C95.9925 84.9493 96.0885 85.3493 96.0885 85.808C96.0885 86.2667 95.9925 86.6667 95.8005 87.008C95.6138 87.344 95.3525 87.6027 95.0165 87.784C94.6858 87.9653 94.3098 88.056 93.8885 88.056C93.4672 88.056 93.0885 87.9653 92.7525 87.784C92.4218 87.6027 92.1605 87.344 91.9685 87.008C91.7765 86.6667 91.6805 86.2667 91.6805 85.808C91.6805 85.3493 91.7765 84.9493 91.9685 84.608C92.1605 84.2667 92.4218 84.0053 92.7525 83.824C93.0885 83.6427 93.4672 83.552 93.8885 83.552ZM93.8885 84.192C93.6272 84.192 93.3845 84.2507 93.1605 84.368C92.9418 84.4853 92.7632 84.6667 92.6245 84.912C92.4912 85.152 92.4245 85.4507 92.4245 85.808C92.4245 86.16 92.4912 86.4587 92.6245 86.704C92.7632 86.944 92.9418 87.1227 93.1605 87.24C93.3845 87.3573 93.6272 87.416 93.8885 87.416C94.1498 87.416 94.3898 87.3573 94.6085 87.24C94.8325 87.1227 95.0112 86.944 95.1445 86.704C95.2832 86.4587 95.3525 86.16 95.3525 85.808C95.3525 85.4507 95.2832 85.152 95.1445 84.912C95.0112 84.6667 94.8325 84.4853 94.6085 84.368C94.3898 84.2507 94.1498 84.192 93.8885 84.192ZM99.3491 83.536C99.8611 83.536 100.274 83.7013 100.589 84.032C100.904 84.3573 101.061 84.8293 101.061 85.448V88H100.333V85.512C100.333 85.0747 100.221 84.7387 99.9971 84.504C99.7731 84.2693 99.4691 84.152 99.0851 84.152C98.6851 84.152 98.3651 84.2827 98.1251 84.544C97.8851 84.8 97.7651 85.176 97.7651 85.672V88H97.0371V83.608H97.7651V84.648C97.8771 84.2907 98.0745 84.016 98.3571 83.824C98.6451 83.632 98.9758 83.536 99.3491 83.536ZM104.274 87.36V88H103.73C103.282 88 102.946 87.8933 102.722 87.68C102.503 87.4667 102.394 87.1093 102.394 86.608V84.24H101.738V83.608H102.394V82.512H103.13V83.608H104.266V84.24H103.13V86.624C103.13 86.9067 103.18 87.1013 103.282 87.208C103.388 87.3093 103.57 87.36 103.826 87.36H104.274ZM107.474 83.536C107.986 83.536 108.399 83.7013 108.714 84.032C109.029 84.3573 109.186 84.8293 109.186 85.448V88H108.458V85.512C108.458 85.0747 108.346 84.7387 108.122 84.504C107.898 84.2693 107.594 84.152 107.21 84.152C106.81 84.152 106.49 84.2827 106.25 84.544C106.01 84.8 105.89 85.176 105.89 85.672V88H105.162V82.08H105.89V84.648C106.002 84.2907 106.199 84.016 106.482 83.824C106.77 83.632 107.101 83.536 107.474 83.536ZM114.647 80.464L112.455 89.368H111.751L113.935 80.464H114.647ZM117.544 83.608L118.968 87.064L120.288 83.608H121.096L118.488 90.08H117.664L118.576 87.928L116.728 83.608H117.544ZM125.804 85.56C125.804 85.7147 125.793 85.848 125.772 85.96H122.26C122.276 86.4613 122.417 86.8373 122.684 87.088C122.956 87.3387 123.286 87.464 123.676 87.464C124.028 87.464 124.321 87.376 124.556 87.2C124.796 87.0187 124.942 86.7787 124.996 86.48H125.772C125.718 86.784 125.598 87.056 125.412 87.296C125.23 87.536 124.993 87.7227 124.7 87.856C124.406 87.9893 124.076 88.056 123.708 88.056C123.286 88.056 122.913 87.9653 122.588 87.784C122.262 87.6027 122.006 87.344 121.82 87.008C121.638 86.6667 121.548 86.2667 121.548 85.808C121.548 85.3493 121.638 84.9493 121.82 84.608C122.006 84.2667 122.262 84.0053 122.588 83.824C122.913 83.6427 123.286 83.552 123.708 83.552C124.134 83.552 124.505 83.6427 124.82 83.824C125.14 84.0053 125.382 84.248 125.548 84.552C125.718 84.856 125.804 85.192 125.804 85.56ZM125.068 85.608C125.084 85.2827 125.03 85.0107 124.908 84.792C124.785 84.5733 124.617 84.4107 124.404 84.304C124.19 84.1973 123.958 84.144 123.708 84.144C123.308 84.144 122.972 84.2693 122.7 84.52C122.428 84.7653 122.281 85.128 122.26 85.608H125.068ZM128.556 83.552C128.983 83.552 129.343 83.6587 129.636 83.872C129.935 84.0853 130.143 84.3707 130.26 84.728V83.608H130.988V88H130.26V86.88C130.143 87.2373 129.935 87.5227 129.636 87.736C129.343 87.9493 128.983 88.056 128.556 88.056C128.167 88.056 127.82 87.9653 127.516 87.784C127.212 87.6027 126.972 87.344 126.796 87.008C126.625 86.6667 126.54 86.2667 126.54 85.808C126.54 85.3493 126.625 84.9493 126.796 84.608C126.972 84.2667 127.212 84.0053 127.516 83.824C127.82 83.6427 128.167 83.552 128.556 83.552ZM128.764 84.2C128.316 84.2 127.956 84.344 127.684 84.632C127.417 84.9147 127.284 85.3067 127.284 85.808C127.284 86.3093 127.417 86.704 127.684 86.992C127.956 87.2747 128.316 87.416 128.764 87.416C129.052 87.416 129.308 87.3493 129.532 87.216C129.761 87.0827 129.94 86.896 130.068 86.656C130.196 86.4107 130.26 86.128 130.26 85.808C130.26 85.488 130.196 85.2053 130.068 84.96C129.94 84.7147 129.761 84.528 129.532 84.4C129.308 84.2667 129.052 84.2 128.764 84.2ZM132.874 84.496C133.018 84.192 133.229 83.9573 133.506 83.792C133.784 83.6213 134.114 83.536 134.498 83.536V84.328H134.274C133.864 84.328 133.528 84.4347 133.266 84.648C133.005 84.856 132.874 85.2027 132.874 85.688V88H132.146V83.608H132.874V84.496Z" fill="white"/>
<path d="M85.176 104.346C85.176 105.811 85.436 106.959 85.956 107.791C86.476 108.614 87.3427 109.026 88.556 109.026C89.7693 109.026 90.636 108.61 91.156 107.778C91.676 106.946 91.936 105.802 91.936 104.346C91.936 102.899 91.676 101.763 91.156 100.94C90.636 100.108 89.7693 99.692 88.556 99.692C87.3427 99.692 86.476 100.104 85.956 100.927C85.436 101.75 85.176 102.89 85.176 104.346ZM90.454 104.346C90.454 105.403 90.324 106.214 90.064 106.777C89.804 107.34 89.3013 107.622 88.556 107.622C87.802 107.622 87.295 107.34 87.035 106.777C86.775 106.214 86.645 105.403 86.645 104.346C86.645 103.297 86.775 102.496 87.035 101.941C87.295 101.386 87.802 101.109 88.556 101.109C89.3013 101.109 89.804 101.391 90.064 101.954C90.324 102.509 90.454 103.306 90.454 104.346ZM98.3066 102.292C98.1506 101.269 97.6176 100.758 96.7076 100.758C96.0489 100.758 95.5549 101.022 95.2256 101.551C94.8963 102.071 94.7316 102.89 94.7316 104.008L94.7446 104.45C94.8746 103.982 95.1563 103.609 95.5896 103.332C96.0229 103.055 96.5343 102.916 97.1236 102.916C98.0249 102.916 98.7313 103.185 99.2426 103.722C99.7539 104.259 100.01 105.018 100.01 105.997C100.01 106.586 99.8926 107.115 99.6586 107.583C99.4246 108.042 99.0736 108.411 98.6056 108.688C98.1376 108.957 97.5613 109.091 96.8766 109.091C95.5506 109.091 94.6406 108.679 94.1466 107.856C93.6526 107.033 93.4056 105.902 93.4056 104.463C93.4056 102.816 93.6699 101.586 94.1986 100.771C94.7273 99.9563 95.5939 99.549 96.7986 99.549C97.6999 99.549 98.3889 99.8047 98.8656 100.316C99.3509 100.827 99.6326 101.486 99.7106 102.292H98.3066ZM94.8746 105.828C94.8746 106.391 95.0393 106.864 95.3686 107.245C95.6979 107.618 96.1833 107.804 96.8246 107.804C97.3706 107.804 97.8039 107.644 98.1246 107.323C98.4539 107.002 98.6186 106.556 98.6186 105.984C98.6186 105.369 98.4539 104.896 98.1246 104.567C97.7953 104.238 97.3489 104.073 96.7856 104.073C96.2743 104.073 95.8279 104.225 95.4466 104.528C95.0653 104.831 94.8746 105.265 94.8746 105.828ZM105.665 96.728L102.129 111.288H100.686L104.222 96.728H105.665ZM106.132 107.843C107.536 106.881 108.659 105.941 109.499 105.022C110.349 104.095 110.773 103.237 110.773 102.448C110.773 101.98 110.656 101.607 110.422 101.33C110.197 101.053 109.829 100.914 109.317 100.914C108.789 100.914 108.39 101.087 108.121 101.434C107.853 101.772 107.701 102.257 107.666 102.89H106.223C106.284 101.841 106.605 101.04 107.185 100.485C107.775 99.9303 108.524 99.653 109.434 99.653C110.327 99.653 111.025 99.8913 111.527 100.368C112.039 100.836 112.294 101.486 112.294 102.318C112.294 102.985 112.086 103.661 111.67 104.346C111.263 105.031 110.743 105.663 110.11 106.244C109.478 106.816 108.823 107.31 108.147 107.726H112.502V108.935H106.132V107.843ZM113.664 104.346C113.664 105.811 113.924 106.959 114.444 107.791C114.964 108.614 115.831 109.026 117.044 109.026C118.258 109.026 119.124 108.61 119.644 107.778C120.164 106.946 120.424 105.802 120.424 104.346C120.424 102.899 120.164 101.763 119.644 100.94C119.124 100.108 118.258 99.692 117.044 99.692C115.831 99.692 114.964 100.104 114.444 100.927C113.924 101.75 113.664 102.89 113.664 104.346ZM118.942 104.346C118.942 105.403 118.812 106.214 118.552 106.777C118.292 107.34 117.79 107.622 117.044 107.622C116.29 107.622 115.783 107.34 115.523 106.777C115.263 106.214 115.133 105.403 115.133 104.346C115.133 103.297 115.263 102.496 115.523 101.941C115.783 101.386 116.29 101.109 117.044 101.109C117.79 101.109 118.292 101.391 118.552 101.954C118.812 102.509 118.942 103.306 118.942 104.346Z" fill="white"/>
</svg>
