<svg width="85" height="62" viewBox="0 0 85 62" fill="none" xmlns="http://www.w3.org/2000/svg">
<path d="M6.56673 18.1342L7.43175 19.9194L9.41006 20.184L7.95956 21.5987L8.27474 23.5684L6.51326 22.6575L4.72975 23.6103L5.0916 21.6326L3.67414 20.2517L5.65925 19.9404L6.56673 18.1342Z" fill="white"/>
<path d="M16.6936 18.1813L17.5586 19.9665L19.5369 20.2311L18.0864 21.6458L18.4016 23.6155L16.6401 22.7046L14.8566 23.6574L15.2184 21.6797L13.801 20.2989L15.7861 19.9875L16.6936 18.1813Z" fill="white"/>
<path d="M26.8197 18.2291L27.6847 20.0144L29.663 20.2789L28.2125 21.6937L28.5277 23.6634L26.7662 22.7525L24.9827 23.7053L25.3446 21.7276L23.9271 20.3467L25.9122 20.0353L26.8197 18.2291Z" fill="white"/>
<path d="M36.9465 18.277L37.8115 20.0622L39.7898 20.3268L38.3393 21.7415L38.6545 23.7112L36.8931 22.8003L35.1095 23.7531L35.4714 21.7754L34.0539 20.3946L36.039 20.0832L36.9465 18.277Z" fill="white"/>
<path d="M51.91 20.84L48.42 20.84L48.42 22.94C48.58 22.7333 48.8067 22.57 49.1 22.45C49.3933 22.3233 49.7167 22.26 50.07 22.26C50.5633 22.26 50.9733 22.3667 51.3 22.58C51.6267 22.7867 51.8667 23.0633 52.02 23.41C52.18 23.7567 52.26 24.14 52.26 24.56C52.26 25.3 52.0533 25.9 51.64 26.36C51.2267 26.8133 50.6267 27.04 49.84 27.04C49.1 27.04 48.5033 26.8433 48.05 26.45C47.5967 26.0567 47.35 25.5333 47.31 24.88L48.43 24.88C48.49 25.24 48.6367 25.5233 48.87 25.73C49.11 25.9367 49.4133 26.04 49.78 26.04C50.2333 26.04 50.5733 25.9033 50.8 25.63C51.0267 25.3567 51.14 24.9933 51.14 24.54C51.14 24.1133 51.0233 23.78 50.79 23.54C50.5567 23.2933 50.2233 23.17 49.79 23.17C49.4833 23.17 49.2133 23.2367 48.98 23.37C48.7533 23.5033 48.5867 23.68 48.48 23.9L47.37 23.9L47.37 19.83L51.91 19.83L51.91 20.84ZM53.2602 23.42C53.2602 24.5467 53.4602 25.43 53.8602 26.07C54.2602 26.7033 54.9269 27.02 55.8602 27.02C56.7936 27.02 57.4602 26.7 57.8602 26.06C58.2602 25.42 58.4602 24.54 58.4602 23.42C58.4602 22.3067 58.2602 21.4333 57.8602 20.8C57.4602 20.16 56.7936 19.84 55.8602 19.84C54.9269 19.84 54.2602 20.1567 53.8602 20.79C53.4602 21.4233 53.2602 22.3 53.2602 23.42ZM57.3202 23.42C57.3202 24.2333 57.2202 24.8567 57.0202 25.29C56.8202 25.7233 56.4336 25.94 55.8602 25.94C55.2802 25.94 54.8902 25.7233 54.6902 25.29C54.4902 24.8567 54.3902 24.2333 54.3902 23.42C54.3902 22.6133 54.4902 21.9967 54.6902 21.57C54.8902 21.1433 55.2802 20.93 55.8602 20.93C56.4336 20.93 56.8202 21.1467 57.0202 21.58C57.2202 22.0067 57.3202 22.62 57.3202 23.42ZM59.6707 21.58C59.6707 21.2333 59.764 20.9167 59.9507 20.63C60.1374 20.3433 60.414 20.1133 60.7807 19.94C61.154 19.7667 61.6007 19.68 62.1207 19.68C62.6407 19.68 63.084 19.7667 63.4507 19.94C63.824 20.1133 64.104 20.3433 64.2907 20.63C64.484 20.9167 64.5807 21.2333 64.5807 21.58C64.5807 21.9667 64.4774 22.3 64.2707 22.58C64.0707 22.86 63.7707 23.0633 63.3707 23.19C63.8174 23.33 64.1607 23.5567 64.4007 23.87C64.6407 24.1767 64.7607 24.5533 64.7607 25C64.7607 25.6867 64.5174 26.2233 64.0307 26.61C63.544 26.99 62.9074 27.18 62.1207 27.18C61.334 27.18 60.6974 26.99 60.2107 26.61C59.7307 26.2233 59.4907 25.6867 59.4907 25C59.4907 24.5533 59.6107 24.1767 59.8507 23.87C60.0907 23.5567 60.434 23.33 60.8807 23.19C60.4807 23.0633 60.1774 22.86 59.9707 22.58C59.7707 22.3 59.6707 21.9667 59.6707 21.58ZM60.8007 21.76C60.8007 22.12 60.9174 22.4 61.1507 22.6C61.3907 22.7933 61.714 22.89 62.1207 22.89C62.5274 22.89 62.8507 22.7933 63.0907 22.6C63.3307 22.4 63.4507 22.12 63.4507 21.76C63.4507 21.4 63.3274 21.12 63.0807 20.92C62.8407 20.72 62.5207 20.62 62.1207 20.62C61.7207 20.62 61.4007 20.72 61.1607 20.92C60.9207 21.12 60.8007 21.4 60.8007 21.76ZM60.6007 24.94C60.6007 25.3467 60.7374 25.6667 61.0107 25.9C61.284 26.1267 61.654 26.24 62.1207 26.24C62.5874 26.24 62.9574 26.1267 63.2307 25.9C63.504 25.6667 63.6407 25.3467 63.6407 24.94C63.6407 24.5267 63.4974 24.2167 63.2107 24.01C62.9307 23.7967 62.5674 23.69 62.1207 23.69C61.6807 23.69 61.3174 23.7967 61.0307 24.01C60.744 24.2233 60.6007 24.5333 60.6007 24.94ZM65.7993 23.42C65.7993 24.5467 65.9993 25.43 66.3993 26.07C66.7993 26.7033 67.466 27.02 68.3993 27.02C69.3326 27.02 69.9993 26.7 70.3993 26.06C70.7993 25.42 70.9993 24.54 70.9993 23.42C70.9993 22.3067 70.7993 21.4333 70.3993 20.8C69.9993 20.16 69.3326 19.84 68.3993 19.84C67.466 19.84 66.7993 20.1567 66.3993 20.79C65.9993 21.4233 65.7993 22.3 65.7993 23.42ZM69.8593 23.42C69.8593 24.2333 69.7593 24.8567 69.5593 25.29C69.3593 25.7233 68.9726 25.94 68.3993 25.94C67.8193 25.94 67.4293 25.7233 67.2293 25.29C67.0293 24.8567 66.9293 24.2333 66.9293 23.42C66.9293 22.6133 67.0293 21.9967 67.2293 21.57C67.4293 21.1433 67.8193 20.93 68.3993 20.93C68.9726 20.93 69.3593 21.1467 69.5593 21.58C69.7593 22.0067 69.8593 22.62 69.8593 23.42Z" fill="white"/>
<path d="M4.3328 53.147C6.58136 51.6063 8.37882 50.1004 9.72518 48.6291C11.0854 47.1439 11.7655 45.7698 11.7655 44.5067C11.7655 43.7572 11.5782 43.1604 11.2034 42.7162C10.8425 42.272 10.2526 42.05 9.4337 42.05C8.58702 42.05 7.94854 42.3276 7.51826 42.8828C7.08798 43.4241 6.84508 44.2014 6.78956 45.2146L4.47854 45.2146C4.5757 43.5351 5.08926 42.2512 6.01922 41.3629C6.96306 40.4746 8.16368 40.0304 9.62108 40.0304C11.0507 40.0304 12.1681 40.4121 12.9731 41.1755C13.792 41.925 14.2015 42.966 14.2015 44.2985C14.2015 45.3673 13.8684 46.4499 13.2021 47.5464C12.5498 48.643 11.717 49.6562 10.7037 50.5862C9.69048 51.5022 8.64254 52.2934 7.5599 52.9596L14.5346 52.9596L14.5346 54.8959L4.3328 54.8959L4.3328 53.147ZM21.5589 39.843C22.5305 39.843 23.3633 40.0165 24.0573 40.3635C24.7513 40.6967 25.2718 41.1616 25.6188 41.7585C25.9797 42.3553 26.1601 43.0216 26.1601 43.7572C26.1601 44.6872 25.8964 45.4644 25.369 46.089C24.8554 46.6998 24.1267 47.0676 23.1829 47.1925L23.1829 47.2966C24.1961 47.5881 24.9873 48.0253 25.5563 48.6083C26.1393 49.1773 26.4308 49.9685 26.4308 50.9817C26.4308 52.2171 26.0213 53.2234 25.2024 54.0006C24.3835 54.764 23.2106 55.1457 21.6838 55.1457C20.1154 55.1457 18.8523 54.7502 17.8946 53.959C16.9369 53.154 16.3886 51.9672 16.2498 50.3988L18.6025 50.3988C18.6857 51.2316 18.9842 51.8978 19.4977 52.3975C20.0113 52.8833 20.7053 53.1262 21.5797 53.1262C22.3986 53.1262 23.0232 52.9111 23.4535 52.4808C23.8977 52.0505 24.1198 51.4953 24.1198 50.8152C24.1198 49.9963 23.8005 49.3717 23.162 48.9414C22.5374 48.5111 21.6283 48.296 20.4346 48.296L19.8725 48.296L19.8725 46.3389L20.4346 46.3389C22.6971 46.3666 23.8283 45.5963 23.8283 44.0279C23.8283 43.3477 23.6201 42.8134 23.2037 42.4247C22.7873 42.0361 22.2182 41.8418 21.4965 41.8418C20.7747 41.8418 20.1709 42.0638 19.6851 42.508C19.1993 42.9383 18.9078 43.5698 18.8107 44.4026L16.4788 44.4026C16.576 42.9591 17.0618 41.8418 17.9362 41.0506C18.8107 40.2456 20.0182 39.843 21.5589 39.843ZM28.4035 51.8354L28.4035 49.8366L35.7113 40.1762L38.2513 40.1762L38.2513 49.7534L40.3125 49.7534L40.3125 51.8354L38.2513 51.8354L38.2513 55L35.857 55L35.857 51.8354L28.4035 51.8354ZM36.0236 43.0077L30.8602 49.7534L36.0236 49.7534L36.0236 43.0077ZM41.6193 51.8354L41.6193 49.8366L48.9271 40.1762L51.4672 40.1762L51.4672 49.7534L53.5283 49.7534L53.5283 51.8354L51.4672 51.8354L51.4672 55L49.0729 55L49.0729 51.8354L41.6193 51.8354ZM49.2394 43.0077L44.0761 49.7534L49.2394 49.7534L49.2394 43.0077ZM57.4168 52.3767L57.4168 55L54.731 55L54.731 52.3767L57.4168 52.3767ZM59.1538 47.5464C59.1538 49.8922 59.5702 51.7313 60.403 53.0637C61.2358 54.3823 62.6238 55.0416 64.567 55.0416C66.5102 55.0416 67.8982 54.3754 68.731 53.0429C69.5638 51.7104 69.9802 49.8783 69.9802 47.5464C69.9802 45.2285 69.5638 43.4102 68.731 42.0916C67.8982 40.7591 66.5102 40.0929 64.567 40.0929C62.6238 40.0929 61.2358 40.7522 60.403 42.0708C59.5702 43.3894 59.1538 45.2146 59.1538 47.5464ZM67.6067 47.5464C67.6067 49.2398 67.3985 50.5376 66.9821 51.4398C66.5657 52.342 65.7607 52.7931 64.567 52.7931C63.3595 52.7931 62.5475 52.342 62.1311 51.4398C61.7147 50.5376 61.5065 49.2398 61.5065 47.5464C61.5065 45.867 61.7147 44.5831 62.1311 43.6947C62.5475 42.8064 63.3595 42.3623 64.567 42.3623C65.7607 42.3623 66.5657 42.8134 66.9821 43.7156C67.3985 44.6039 67.6067 45.8808 67.6067 47.5464ZM72.1256 47.5464C72.1256 49.8922 72.542 51.7313 73.3748 53.0637C74.2076 54.3823 75.5956 55.0416 77.5388 55.0416C79.482 55.0416 80.87 54.3754 81.7028 53.0429C82.5356 51.7104 82.952 49.8783 82.952 47.5464C82.952 45.2285 82.5356 43.4102 81.7028 42.0916C80.87 40.7591 79.482 40.0929 77.5388 40.0929C75.5956 40.0929 74.2076 40.7522 73.3748 42.0708C72.542 43.3894 72.1256 45.2146 72.1256 47.5464ZM80.5786 47.5464C80.5786 49.2398 80.3704 50.5376 79.954 51.4398C79.5376 52.342 78.7325 52.7931 77.5388 52.7931C76.3313 52.7931 75.5193 52.342 75.1029 51.4398C74.6865 50.5376 74.4783 49.2398 74.4783 47.5464C74.4783 45.867 74.6865 44.5831 75.1029 43.6947C75.5193 42.8064 76.3313 42.3623 77.5388 42.3623C78.7325 42.3623 79.5376 42.8134 79.954 43.7156C80.3704 44.6039 80.5786 45.8808 80.5786 47.5464Z" fill="white"/>
</svg>
