<svg width="29" height="29" viewBox="0 0 29 29" fill="none" xmlns="http://www.w3.org/2000/svg">
<path d="M25.4118 0H4.05882C2.09613 0 0.5 1.59613 0.5 3.55882V24.9118C0.5 26.8745 2.09613 28.4706 4.05882 28.4706H25.4118C27.3745 28.4706 28.9706 26.8745 28.9706 24.9118V3.55882C28.9706 1.59613 27.3745 0 25.4118 0Z" fill="#ECECEE"/>
<path fill-rule="evenodd" clip-rule="evenodd" d="M17.9775 13.9074C18.2273 13.2897 17.7727 12.6154 17.1063 12.6154C16.5874 12.6154 16.1667 12.1947 16.1667 11.6757V10.7692C16.1667 10.2597 16.5848 10.3077 17.1 10.3077C17.6155 10.3077 18.0333 9.88982 18.0333 9.37436V9.15385C18.0333 8.51659 17.5167 8 16.8795 8H16.1667C15.4241 8 14.7119 8.29176 14.1868 8.81109C13.6617 9.33042 13.3667 10.0348 13.3667 10.7692V11.6821C13.3667 12.1975 12.9488 12.6154 12.4333 12.6154C11.9179 12.6154 11.5 13.0333 11.5 13.5487V13.9897C11.5 14.5052 11.9179 14.9231 12.4333 14.9231C12.9488 14.9231 13.3667 15.3409 13.3667 15.8564V18.6C13.3667 19.3732 13.9935 20 14.7667 20C15.5399 20 16.1667 19.3732 16.1667 18.6V15.7593C16.1667 15.2975 16.541 14.9231 17.0029 14.9231C17.3436 14.9231 17.6503 14.7163 17.7781 14.4004L17.9775 13.9074Z" fill="#3C50E0"/>
</svg>
