<svg width="30" height="29" viewBox="0 0 30 29" fill="none" xmlns="http://www.w3.org/2000/svg">
<path d="M29.4393 24.5163C29.4393 25.5651 29.0227 26.5709 28.2812 27.3124C27.5396 28.054 26.5338 28.4706 25.4851 28.4706H4.923C3.87427 28.4706 2.86849 28.054 2.12692 27.3124C1.38536 26.5709 0.96875 25.5651 0.96875 24.5163V3.95425C0.96875 2.90552 1.38536 1.89974 2.12692 1.15817C2.86849 0.416607 3.87427 0 4.923 0H25.4851C26.5338 0 27.5396 0.416607 28.2812 1.15817C29.0227 1.89974 29.4393 2.90552 29.4393 3.95425V24.5163Z" fill="#ECECEE"/>
<path d="M20.7031 11.0042C20.6551 11.0262 20.6056 11.048 20.5549 11.0695C20.2813 11.1854 20.1365 10.8147 20.3337 10.5926C20.5026 10.4024 20.2815 10.2216 20.0453 10.3159C19.7937 10.4165 19.5254 10.5068 19.2829 10.5735C19.087 10.6273 18.8851 10.5524 18.7238 10.4288C18.3388 10.1338 17.8502 10 17.3193 10C16.0726 10 15.2031 11.0918 15.2031 12.3684C15.2031 12.8916 14.7733 13.3231 14.2658 13.1956C13.1668 12.9196 12.1252 12.2002 11.2845 11.3768C10.8681 10.9689 10.1627 11.0546 10.1642 11.6375C10.1642 12.1674 10.4539 12.7022 10.818 13.1321C11.0024 13.3499 10.8643 13.6339 10.6009 13.524C10.4386 13.4563 10.2914 13.3865 10.185 13.3287C10.1743 13.3229 10.1615 13.3307 10.1615 13.3428C10.1615 14.0926 10.5019 14.6813 11.036 15.0526C11.2466 15.1991 11.4565 15.6208 11.202 15.6532C11.0378 15.6741 10.7056 15.8458 10.7959 15.9844C10.9227 16.1788 11.1045 16.3485 11.3195 16.4931C11.9286 16.9026 12.1064 17.7837 11.3865 17.9265C10.9655 18.01 10.5427 18.0526 10.1615 18.0526C10.048 18.0526 9.99862 18.2205 10.0993 18.2728C11.0517 18.7675 12.2566 19 13.3698 19C17.5209 19 19.7865 15.7231 19.7865 12.6668C19.7865 12.3329 19.9535 12.0233 20.1728 11.7714C20.3671 11.5484 20.5101 11.3025 20.7031 11.0042Z" fill="#3C50E0"/>
</svg>
