<svg width="29" height="29" viewBox="0 0 29 29" fill="none" xmlns="http://www.w3.org/2000/svg">
<path d="M22.5802 0H6.89035C3.36106 0 0.5 2.86106 0.5 6.39035V22.0802C0.5 25.6095 3.36106 28.4706 6.89035 28.4706H22.5802C26.1095 28.4706 28.9706 25.6095 28.9706 22.0802V6.39035C28.9706 2.86106 26.1095 0 22.5802 0Z" fill="#ECECEE"/>
<path d="M11.4103 13.4541C11.4103 12.825 10.9003 12.3151 10.2712 12.3151C9.64212 12.3151 9.13215 12.825 9.13215 13.4541V17.8475C9.13215 18.4766 9.64212 18.9866 10.2712 18.9866C10.9003 18.9866 11.4103 18.4766 11.4103 17.8475V13.4541Z" fill="#3C50E0"/>
<path d="M11.0273 9.20164C10.8102 9.07017 10.555 9 10.294 9C10.1198 9 9.94739 9.03124 9.78659 9.09194C9.62578 9.15264 9.47978 9.24159 9.35699 9.35367C9.23419 9.46576 9.13702 9.59878 9.07107 9.74507C9.00512 9.89136 8.97168 10.048 8.97268 10.2061C8.97418 10.443 9.05295 10.6742 9.19904 10.8705C9.34514 11.0668 9.55202 11.2194 9.79359 11.3091C10.0352 11.3988 10.3006 11.4216 10.5564 11.3745C10.8122 11.3275 11.0469 11.2127 11.231 11.0448C11.415 10.8768 11.5401 10.6631 11.5904 10.4306C11.6408 10.1982 11.6142 9.95744 11.514 9.73872C11.4138 9.51999 11.2444 9.3331 11.0273 9.20164Z" fill="#3C50E0"/>
<path d="M15.0671 12.5218C15.0671 12.4075 14.9744 12.3147 14.86 12.3147H13.9692C13.3633 12.3147 12.8719 12.8055 12.8713 13.4114L12.8662 17.8603C12.8655 18.4895 13.3754 19 14.0046 19C14.6333 19 15.143 18.4903 15.143 17.8616V15.6987C15.143 14.8303 15.3253 13.9895 16.5099 13.9895C17.6945 13.9895 17.6945 14.9888 17.6945 15.7607V17.8472C17.6945 18.4762 18.2045 18.9862 18.8336 18.9862C19.4627 18.9862 19.9727 18.4762 19.9727 17.8472V15.3265C19.9727 13.5277 19.5094 12.1493 17.2313 12.1493C16.7971 12.1339 16.3665 12.2258 15.9853 12.4151C15.8228 12.4959 15.6719 12.593 15.5352 12.7043C15.375 12.8347 15.0671 12.7283 15.0671 12.5218Z" fill="#3C50E0"/>
</svg>
