<svg width="9" height="8" viewBox="0 0 9 8" fill="none" xmlns="http://www.w3.org/2000/svg">
<path d="M4.49946 0.189697C2.39817 0.189697 0.688732 1.89914 0.688732 4.00028C0.688732 6.10156 2.39817 7.81101 4.49946 7.81101C6.6006 7.81101 8.31004 6.10156 8.31004 4.00028C8.31004 1.89914 6.6006 0.189697 4.49946 0.189697ZM6.76188 3.28265L4.03193 6.0126C3.91734 6.1272 3.76704 6.18457 3.61689 6.18457C3.46675 6.18457 3.3166 6.12735 3.20201 6.0126L2.15876 4.96936C1.92958 4.74033 1.92958 4.36878 2.15876 4.13959C2.3878 3.9104 2.75935 3.9104 2.98854 4.13959L3.61689 4.76795L5.93211 2.45288C6.16114 2.22369 6.5327 2.22369 6.76188 2.45288C6.99107 2.68192 6.99107 3.05347 6.76188 3.28265Z" fill="white"/>
</svg>
