<svg width="182" height="121" viewBox="0 0 182 121" fill="none" xmlns="http://www.w3.org/2000/svg">
<g filter="url(#filter0_d)">
<rect x="10.5" y="10" width="101" height="41" rx="8" fill="white"/>
</g>
<path d="M44.416 33.012H40.342L39.642 35H37.976L41.462 25.256H43.31L46.796 35H45.116L44.416 33.012ZM43.968 31.71L42.386 27.188L40.79 31.71H43.968ZM47.6397 31.108C47.6397 30.3333 47.7984 29.6473 48.1157 29.05C48.4424 28.4527 48.8811 27.9907 49.4317 27.664C49.9917 27.328 50.6124 27.16 51.2937 27.16C51.7977 27.16 52.2924 27.272 52.7777 27.496C53.2724 27.7107 53.6644 28 53.9537 28.364V24.64H55.5637V35H53.9537V33.838C53.6924 34.2113 53.3284 34.5193 52.8617 34.762C52.4044 35.0047 51.8771 35.126 51.2797 35.126C50.6077 35.126 49.9917 34.958 49.4317 34.622C48.8811 34.2767 48.4424 33.8007 48.1157 33.194C47.7984 32.578 47.6397 31.8827 47.6397 31.108ZM53.9537 31.136C53.9537 30.604 53.8417 30.142 53.6177 29.75C53.4031 29.358 53.1184 29.0593 52.7637 28.854C52.4091 28.6487 52.0264 28.546 51.6157 28.546C51.2051 28.546 50.8224 28.6487 50.4677 28.854C50.1131 29.05 49.8237 29.344 49.5997 29.736C49.3851 30.1187 49.2777 30.576 49.2777 31.108C49.2777 31.64 49.3851 32.1067 49.5997 32.508C49.8237 32.9093 50.1131 33.2173 50.4677 33.432C50.8317 33.6373 51.2144 33.74 51.6157 33.74C52.0264 33.74 52.4091 33.6373 52.7637 33.432C53.1184 33.2267 53.4031 32.928 53.6177 32.536C53.8417 32.1347 53.9537 31.668 53.9537 31.136ZM56.988 31.108C56.988 30.3333 57.1467 29.6473 57.464 29.05C57.7907 28.4527 58.2293 27.9907 58.78 27.664C59.34 27.328 59.9607 27.16 60.642 27.16C61.146 27.16 61.6407 27.272 62.126 27.496C62.6207 27.7107 63.0127 28 63.302 28.364V24.64H64.912V35H63.302V33.838C63.0407 34.2113 62.6767 34.5193 62.21 34.762C61.7527 35.0047 61.2253 35.126 60.628 35.126C59.956 35.126 59.34 34.958 58.78 34.622C58.2293 34.2767 57.7907 33.8007 57.464 33.194C57.1467 32.578 56.988 31.8827 56.988 31.108ZM63.302 31.136C63.302 30.604 63.19 30.142 62.966 29.75C62.7513 29.358 62.4667 29.0593 62.112 28.854C61.7573 28.6487 61.3747 28.546 60.964 28.546C60.5533 28.546 60.1707 28.6487 59.816 28.854C59.4613 29.05 59.172 29.344 58.948 29.736C58.7333 30.1187 58.626 30.576 58.626 31.108C58.626 31.64 58.7333 32.1067 58.948 32.508C59.172 32.9093 59.4613 33.2173 59.816 33.432C60.18 33.6373 60.5627 33.74 60.964 33.74C61.3747 33.74 61.7573 33.6373 62.112 33.432C62.4667 33.2267 62.7513 32.928 62.966 32.536C63.19 32.1347 63.302 31.668 63.302 31.136ZM78.359 35H76.763L71.961 27.734V35H70.365V25.256H71.961L76.763 32.508V25.256H78.359V35ZM87.3848 30.954C87.3848 31.2433 87.3662 31.5047 87.3288 31.738H81.4348C81.4815 32.354 81.7102 32.8487 82.1208 33.222C82.5315 33.5953 83.0355 33.782 83.6328 33.782C84.4915 33.782 85.0982 33.4227 85.4528 32.704H87.1748C86.9415 33.4133 86.5168 33.9967 85.9008 34.454C85.2942 34.902 84.5382 35.126 83.6328 35.126C82.8955 35.126 82.2328 34.9627 81.6448 34.636C81.0662 34.3 80.6088 33.8333 80.2728 33.236C79.9462 32.6293 79.7828 31.9293 79.7828 31.136C79.7828 30.3427 79.9415 29.6473 80.2588 29.05C80.5855 28.4433 81.0382 27.9767 81.6168 27.65C82.2048 27.3233 82.8768 27.16 83.6328 27.16C84.3608 27.16 85.0095 27.3187 85.5788 27.636C86.1482 27.9533 86.5915 28.4013 86.9088 28.98C87.2262 29.5493 87.3848 30.2073 87.3848 30.954ZM85.7188 30.45C85.7095 29.862 85.4995 29.3907 85.0888 29.036C84.6782 28.6813 84.1695 28.504 83.5628 28.504C83.0122 28.504 82.5408 28.6813 82.1488 29.036C81.7568 29.3813 81.5235 29.8527 81.4488 30.45H85.7188ZM99.1755 27.286L96.7815 35H95.1015L93.5475 29.302L91.9935 35H90.3135L87.9055 27.286H89.5295L91.1395 33.488L92.7775 27.286H94.4435L96.0115 33.46L97.6075 27.286H99.1755Z" fill="#515151"/>
<rect x="22.5" y="30" width="9" height="1.5" fill="#515151"/>
<rect x="28" y="26" width="9" height="1.5" transform="rotate(90 28 26)" fill="#515151"/>
<defs>
<filter id="filter0_d" x="0.5" y="0" width="181" height="121" filterUnits="userSpaceOnUse" color-interpolation-filters="sRGB">
<feFlood flood-opacity="0" result="BackgroundImageFix"/>
<feColorMatrix in="SourceAlpha" type="matrix" values="0 0 0 0 0 0 0 0 0 0 0 0 0 0 0 0 0 0 127 0"/>
<feOffset dx="30" dy="30"/>
<feGaussianBlur stdDeviation="20"/>
<feColorMatrix type="matrix" values="0 0 0 0 0 0 0 0 0 0 0 0 0 0 0 0 0 0 0.04 0"/>
<feBlend mode="normal" in2="BackgroundImageFix" result="effect1_dropShadow"/>
<feBlend mode="normal" in="SourceGraphic" in2="effect1_dropShadow" result="shape"/>
</filter>
</defs>
</svg>
