<svg width="351" height="361" viewBox="0 0 351 361" fill="none" xmlns="http://www.w3.org/2000/svg">
<g filter="url(#filter0_f)">
<rect x="105.5" y="106" width="140" height="149" fill="#1E0068" fill-opacity="0.08"/>
</g>
<rect x="236.12" y="221.776" width="121.24" height="158.14" rx="16" transform="rotate(-180 236.12 221.776)" fill="#8A96F4"/>
<rect x="235.725" y="221.38" width="120.45" height="157.349" rx="15.6047" transform="rotate(-180 235.725 221.38)" stroke="white" stroke-opacity="0.5" stroke-width="0.790698"/>
<g opacity="0.3" filter="url(#filter1_b)">
<rect x="124.986" y="77.0156" width="32.0312" height="31.8084" rx="15.9042" fill="white"/>
</g>
<path d="M141.145 87.0944L141.301 99.4381M141.301 99.4381L145.469 95.6034M141.301 99.4381L136.961 95.7114" stroke="white" stroke-width="1.26049" stroke-linecap="round"/>
<path d="M168.102 81.1697L168.102 87.8685L167.02 87.8685L167.02 81.1697L168.102 81.1697ZM172.334 82.555C172.941 82.555 173.428 82.7511 173.795 83.1433C174.162 83.5355 174.345 84.0953 174.345 84.8228L174.345 87.8685L173.263 87.8685L173.263 84.9366C173.263 84.4685 173.143 84.108 172.903 83.8549C172.662 83.5956 172.334 83.4659 171.916 83.4659C171.486 83.4659 171.141 83.6051 170.882 83.8834C170.622 84.1554 170.493 84.5571 170.493 85.0884L170.493 87.8685L169.411 87.8685L169.411 82.6404L170.493 82.6404L170.493 83.7885C170.632 83.3963 170.866 83.0927 171.195 82.8776C171.524 82.6626 171.903 82.555 172.334 82.555ZM177.935 82.574C178.612 82.574 179.171 82.7543 179.614 83.1149C180.057 83.4691 180.332 83.953 180.44 84.5666L179.292 84.5666C179.228 84.2376 179.073 83.9815 178.827 83.798C178.586 83.6083 178.283 83.5134 177.916 83.5134C177.498 83.5134 177.15 83.662 176.872 83.9593C176.594 84.2503 176.455 84.6804 176.455 85.2497C176.455 85.819 176.594 86.2523 176.872 86.5496C177.15 86.8469 177.498 86.9956 177.916 86.9956C178.283 86.9956 178.586 86.9007 178.827 86.7109C179.073 86.5212 179.228 86.2618 179.292 85.9329L180.44 85.9329C180.332 86.5465 180.057 87.0336 179.614 87.3941C179.171 87.7547 178.612 87.9349 177.935 87.9349C177.429 87.9349 176.98 87.8274 176.587 87.6123C176.202 87.3973 175.898 87.0873 175.676 86.6825C175.455 86.2776 175.344 85.8001 175.344 85.2497C175.344 84.7057 175.455 84.2313 175.676 83.8265C175.898 83.4216 176.202 83.1117 176.587 82.8966C176.98 82.6816 177.429 82.574 177.935 82.574ZM183.876 82.574C184.382 82.574 184.837 82.6816 185.242 82.8966C185.647 83.1117 185.963 83.4216 186.191 83.8265C186.419 84.2313 186.533 84.7057 186.533 85.2497C186.533 85.8001 186.419 86.2776 186.191 86.6825C185.963 87.0873 185.647 87.3973 185.242 87.6123C184.837 87.8274 184.382 87.9349 183.876 87.9349C183.37 87.9349 182.914 87.8274 182.509 87.6123C182.111 87.3973 181.795 87.0873 181.561 86.6825C181.333 86.2713 181.219 85.7937 181.219 85.2497C181.219 84.7057 181.333 84.2313 181.561 83.8265C181.795 83.4216 182.111 83.1117 182.509 82.8966C182.914 82.6816 183.37 82.574 183.876 82.574ZM183.876 83.5134C183.597 83.5134 183.341 83.5766 183.107 83.7031C182.873 83.8296 182.683 84.0257 182.538 84.2914C182.399 84.5508 182.329 84.8702 182.329 85.2497C182.329 85.6356 182.399 85.9582 182.538 86.2176C182.683 86.4769 182.873 86.6698 183.107 86.7963C183.341 86.9229 183.597 86.9861 183.876 86.9861C184.154 86.9861 184.41 86.9229 184.644 86.7963C184.878 86.6698 185.065 86.4769 185.204 86.2176C185.35 85.9582 185.422 85.6356 185.422 85.2497C185.422 84.8702 185.35 84.5508 185.204 84.2914C185.065 84.0257 184.878 83.8296 184.644 83.7031C184.41 83.5766 184.154 83.5134 183.876 83.5134ZM194.11 82.555C194.73 82.555 195.223 82.7511 195.59 83.1433C195.963 83.5355 196.15 84.0953 196.15 84.8228L196.15 87.8685L195.068 87.8685L195.068 84.9366C195.068 84.4812 194.954 84.1301 194.727 83.8834C194.499 83.6304 194.186 83.5039 193.787 83.5039C193.364 83.5039 193.025 83.6399 192.772 83.9119C192.525 84.1776 192.402 84.5697 192.402 85.0884L192.402 87.8685L191.32 87.8685L191.32 84.9366C191.32 84.4812 191.207 84.1301 190.979 83.8834C190.751 83.6304 190.438 83.5039 190.039 83.5039C189.616 83.5039 189.277 83.6399 189.024 83.9119C188.777 84.1776 188.654 84.5697 188.654 85.0884L188.654 87.8685L187.572 87.8685L187.572 82.6404L188.654 82.6404L188.654 83.7316C188.787 83.3521 189.008 83.0611 189.318 82.8587C189.628 82.6563 189.992 82.555 190.409 82.555C190.846 82.555 191.222 82.6626 191.539 82.8776C191.861 83.0927 192.095 83.4027 192.241 83.8075C192.393 83.4153 192.636 83.1085 192.971 82.8871C193.307 82.6657 193.686 82.555 194.11 82.555ZM184.124 99.003C184.124 99.1802 184.111 99.3351 184.086 99.468L180.063 99.468C180.081 100.006 180.23 100.404 180.508 100.664C180.787 100.923 181.132 101.053 181.543 101.053C181.903 101.053 182.207 100.961 182.454 100.777C182.707 100.594 182.862 100.35 182.919 100.047L184.076 100.047C184.007 100.414 183.861 100.739 183.64 101.024C183.418 101.309 183.13 101.533 182.776 101.698C182.422 101.856 182.027 101.935 181.59 101.935C181.084 101.935 180.635 101.827 180.243 101.612C179.857 101.397 179.553 101.087 179.332 100.682C179.111 100.278 179 99.8001 179 99.2497C179 98.7057 179.111 98.2313 179.332 97.8265C179.553 97.4216 179.857 97.1117 180.243 96.8966C180.635 96.6816 181.084 96.574 181.59 96.574C182.103 96.574 182.548 96.6816 182.928 96.8966C183.314 97.1054 183.608 97.3963 183.81 97.7696C184.019 98.1364 184.124 98.5476 184.124 99.003ZM183.032 98.9746C183.045 98.633 182.985 98.3483 182.852 98.1206C182.726 97.8866 182.548 97.7158 182.321 97.6083C182.099 97.4944 181.856 97.4375 181.59 97.4375C181.166 97.4375 180.812 97.5671 180.527 97.8265C180.243 98.0858 180.088 98.4685 180.063 98.9746L183.032 98.9746Z" fill="white"/>
<path d="M166.732 100.941L167.338 95.6075L173.219 95.6075L173.219 97.3443L169.046 97.3443L168.786 99.6001C169.281 99.3359 169.807 99.2037 170.365 99.2037C171.364 99.2037 172.147 99.5136 172.714 100.133C173.281 100.753 173.565 101.62 173.565 102.735C173.565 103.413 173.42 104.02 173.132 104.558C172.849 105.092 172.44 105.507 171.907 105.805C171.374 106.098 170.744 106.245 170.019 106.245C169.385 106.245 168.796 106.118 168.253 105.863C167.71 105.603 167.28 105.241 166.963 104.775C166.651 104.309 166.485 103.778 166.466 103.182L168.527 103.182C168.57 103.619 168.722 103.96 168.981 104.205C169.245 104.446 169.589 104.566 170.012 104.566C170.482 104.566 170.845 104.397 171.1 104.061C171.354 103.72 171.482 103.24 171.482 102.62C171.482 102.024 171.335 101.568 171.042 101.25C170.749 100.933 170.333 100.775 169.795 100.775C169.3 100.775 168.899 100.905 168.592 101.164L168.39 101.351L166.732 100.941ZM175.525 108.731L174.437 108.162L174.696 107.693C175.018 107.107 175.184 106.524 175.193 105.942L175.193 104.328L176.952 104.328L176.945 105.769C176.94 106.303 176.805 106.841 176.541 107.384C176.277 107.926 175.938 108.376 175.525 108.731ZM184.151 95.4994L184.151 97.2146L183.95 97.2146C183.008 97.229 182.249 97.4741 181.672 97.9497C181.101 98.4254 180.757 99.086 180.642 99.9316C181.199 99.3647 181.903 99.0812 182.753 99.0812C183.666 99.0812 184.392 99.4079 184.93 100.061C185.468 100.715 185.737 101.575 185.737 102.641C185.737 103.324 185.588 103.941 185.29 104.494C184.997 105.046 184.579 105.476 184.036 105.784C183.498 106.091 182.888 106.245 182.206 106.245C181.101 106.245 180.207 105.86 179.525 105.092C178.847 104.323 178.508 103.297 178.508 102.014L178.508 101.265C178.508 100.126 178.722 99.122 179.15 98.2524C179.582 97.378 180.2 96.7029 181.002 96.2273C181.809 95.7468 182.744 95.5042 183.806 95.4994L184.151 95.4994ZM182.119 100.753C181.783 100.753 181.478 100.842 181.204 101.02C180.93 101.193 180.728 101.423 180.598 101.712L180.598 102.346C180.598 103.043 180.735 103.588 181.009 103.982C181.283 104.371 181.667 104.566 182.162 104.566C182.609 104.566 182.97 104.39 183.243 104.04C183.522 103.684 183.661 103.225 183.661 102.663C183.661 102.091 183.522 101.63 183.243 101.279C182.965 100.929 182.59 100.753 182.119 100.753ZM194.039 101.762C194.039 103.213 193.739 104.323 193.138 105.092C192.538 105.86 191.659 106.245 190.501 106.245C189.357 106.245 188.483 105.868 187.877 105.113C187.272 104.359 186.962 103.278 186.948 101.87L186.948 99.9388C186.948 98.4734 187.25 97.3612 187.856 96.602C188.466 95.8429 189.343 95.4634 190.486 95.4634C191.63 95.4634 192.504 95.8405 193.11 96.5948C193.715 97.3443 194.025 98.423 194.039 99.8307L194.039 101.762ZM191.957 99.6433C191.957 98.7737 191.836 98.1419 191.596 97.7479C191.361 97.3492 190.991 97.1498 190.486 97.1498C189.996 97.1498 189.633 97.3395 189.398 97.7191C189.167 98.0939 189.045 98.6824 189.031 99.4848L189.031 102.036C189.031 102.891 189.146 103.528 189.376 103.946C189.612 104.359 189.987 104.566 190.501 104.566C191.01 104.566 191.378 104.366 191.603 103.967C191.829 103.569 191.947 102.959 191.957 102.137L191.957 99.6433ZM202.515 101.762C202.515 103.213 202.214 104.323 201.614 105.092C201.013 105.86 200.134 106.245 198.976 106.245C197.833 106.245 196.958 105.868 196.353 105.113C195.747 104.359 195.437 103.278 195.423 101.87L195.423 99.9388C195.423 98.4734 195.726 97.3612 196.331 96.602C196.941 95.8429 197.818 95.4634 198.962 95.4634C200.105 95.4634 200.98 95.8405 201.585 96.5948C202.19 97.3443 202.5 98.423 202.515 99.8307L202.515 101.762ZM200.432 99.6433C200.432 98.7737 200.312 98.1419 200.071 97.7479C199.836 97.3492 199.466 97.1498 198.962 97.1498C198.472 97.1498 198.109 97.3395 197.873 97.7191C197.643 98.0939 197.52 98.6824 197.506 99.4848L197.506 102.036C197.506 102.891 197.621 103.528 197.852 103.946C198.087 104.359 198.462 104.566 198.976 104.566C199.485 104.566 199.853 104.366 200.079 103.967C200.304 103.569 200.422 102.959 200.432 102.137L200.432 99.6433Z" fill="white"/>
<path d="M129.334 144.905L129.967 146.212L131.414 146.405L130.353 147.44L130.584 148.882L129.295 148.215L127.99 148.912L128.255 147.465L127.217 146.455L128.67 146.227L129.334 144.905Z" fill="white"/>
<path d="M136.744 144.94L137.377 146.246L138.824 146.44L137.763 147.475L137.993 148.916L136.705 148.25L135.4 148.947L135.664 147.5L134.627 146.489L136.08 146.262L136.744 144.94Z" fill="white"/>
<path d="M144.153 144.975L144.786 146.281L146.233 146.475L145.172 147.51L145.403 148.951L144.114 148.285L142.809 148.982L143.073 147.535L142.036 146.524L143.489 146.297L144.153 144.975Z" fill="white"/>
<path d="M151.563 145.01L152.195 146.316L153.643 146.51L152.582 147.545L152.812 148.986L151.523 148.32L150.218 149.017L150.483 147.57L149.446 146.559L150.899 146.332L151.563 145.01Z" fill="white"/>
<path d="M164.292 145.28L160.981 145.28L160.981 147.273C161.132 147.076 161.347 146.921 161.626 146.808C161.904 146.687 162.211 146.627 162.546 146.627C163.014 146.627 163.403 146.729 163.713 146.931C164.023 147.127 164.251 147.39 164.396 147.718C164.548 148.047 164.624 148.411 164.624 148.81C164.624 149.512 164.428 150.081 164.036 150.518C163.644 150.948 163.074 151.163 162.328 151.163C161.626 151.163 161.06 150.976 160.629 150.603C160.199 150.23 159.965 149.733 159.927 149.113L160.99 149.113C161.047 149.455 161.186 149.724 161.407 149.92C161.635 150.116 161.923 150.214 162.271 150.214C162.701 150.214 163.024 150.084 163.239 149.825C163.454 149.566 163.561 149.221 163.561 148.791C163.561 148.386 163.451 148.07 163.229 147.842C163.008 147.608 162.692 147.491 162.28 147.491C161.989 147.491 161.733 147.554 161.512 147.681C161.297 147.807 161.139 147.975 161.037 148.183L159.984 148.183L159.984 144.322L164.292 144.322L164.292 145.28ZM165.573 147.728C165.573 148.797 165.763 149.635 166.142 150.242C166.522 150.843 167.155 151.144 168.04 151.144C168.926 151.144 169.558 150.84 169.938 150.233C170.317 149.626 170.507 148.791 170.507 147.728C170.507 146.672 170.317 145.843 169.938 145.242C169.558 144.635 168.926 144.331 168.04 144.331C167.155 144.331 166.522 144.632 166.142 145.233C165.763 145.833 165.573 146.665 165.573 147.728ZM169.425 147.728C169.425 148.5 169.331 149.091 169.141 149.502C168.951 149.913 168.584 150.119 168.04 150.119C167.49 150.119 167.12 149.913 166.93 149.502C166.74 149.091 166.645 148.5 166.645 147.728C166.645 146.963 166.74 146.377 166.93 145.973C167.12 145.568 167.49 145.365 168.04 145.365C168.584 145.365 168.951 145.571 169.141 145.982C169.331 146.387 169.425 146.969 169.425 147.728ZM171.656 145.982C171.656 145.653 171.744 145.353 171.921 145.081C172.098 144.809 172.361 144.59 172.709 144.426C173.063 144.262 173.487 144.179 173.98 144.179C174.474 144.179 174.894 144.262 175.242 144.426C175.596 144.59 175.862 144.809 176.039 145.081C176.223 145.353 176.314 145.653 176.314 145.982C176.314 146.349 176.216 146.665 176.02 146.931C175.83 147.197 175.546 147.39 175.166 147.51C175.59 147.643 175.916 147.858 176.144 148.155C176.371 148.446 176.485 148.803 176.485 149.227C176.485 149.879 176.254 150.388 175.793 150.755C175.331 151.115 174.727 151.296 173.98 151.296C173.234 151.296 172.63 151.115 172.168 150.755C171.713 150.388 171.485 149.879 171.485 149.227C171.485 148.803 171.599 148.446 171.826 148.155C172.054 147.858 172.38 147.643 172.804 147.51C172.424 147.39 172.136 147.197 171.94 146.931C171.75 146.665 171.656 146.349 171.656 145.982ZM172.728 146.153C172.728 146.494 172.838 146.76 173.06 146.95C173.288 147.133 173.594 147.225 173.98 147.225C174.366 147.225 174.673 147.133 174.901 146.95C175.128 146.76 175.242 146.494 175.242 146.153C175.242 145.811 175.125 145.546 174.891 145.356C174.663 145.166 174.36 145.071 173.98 145.071C173.601 145.071 173.297 145.166 173.069 145.356C172.842 145.546 172.728 145.811 172.728 146.153ZM172.538 149.17C172.538 149.556 172.668 149.86 172.927 150.081C173.186 150.296 173.537 150.404 173.98 150.404C174.423 150.404 174.774 150.296 175.033 150.081C175.293 149.86 175.422 149.556 175.422 149.17C175.422 148.778 175.286 148.484 175.014 148.288C174.749 148.085 174.404 147.984 173.98 147.984C173.563 147.984 173.218 148.085 172.946 148.288C172.674 148.49 172.538 148.784 172.538 149.17ZM159.652 161.728C159.652 162.797 159.842 163.635 160.221 164.242C160.601 164.843 161.234 165.144 162.119 165.144C163.005 165.144 163.637 164.84 164.017 164.233C164.396 163.626 164.586 162.791 164.586 161.728C164.586 160.672 164.396 159.843 164.017 159.242C163.637 158.635 163.005 158.331 162.119 158.331C161.234 158.331 160.601 158.632 160.221 159.233C159.842 159.833 159.652 160.665 159.652 161.728ZM163.504 161.728C163.504 162.5 163.41 163.091 163.22 163.502C163.03 163.913 162.663 164.119 162.119 164.119C161.569 164.119 161.199 163.913 161.009 163.502C160.819 163.091 160.724 162.5 160.724 161.728C160.724 160.963 160.819 160.377 161.009 159.973C161.199 159.568 161.569 159.365 162.119 159.365C162.663 159.365 163.03 159.571 163.22 159.982C163.41 160.387 163.504 160.969 163.504 161.728Z" fill="white"/>
<path d="M137.793 166.569C137.793 167.296 137.612 167.941 137.248 168.504C136.884 169.067 136.383 169.516 135.745 169.853C136.472 170.203 137.049 170.687 137.474 171.304C137.9 171.915 138.113 172.636 138.113 173.467C138.113 174.798 137.66 175.852 136.754 176.627C135.848 177.396 134.616 177.78 133.057 177.78C131.499 177.78 130.264 177.393 129.351 176.617C128.438 175.841 127.982 174.791 127.982 173.467C127.982 172.636 128.195 171.912 128.62 171.294C129.046 170.676 129.619 170.196 130.339 169.853C129.701 169.516 129.2 169.067 128.836 168.504C128.479 167.941 128.301 167.296 128.301 166.569C128.301 165.292 128.726 164.276 129.578 163.521C130.429 162.759 131.585 162.378 133.047 162.378C134.502 162.378 135.655 162.756 136.506 163.511C137.364 164.259 137.793 165.278 137.793 166.569ZM135.127 173.25C135.127 172.598 134.938 172.077 134.561 171.685C134.183 171.294 133.675 171.099 133.037 171.099C132.405 171.099 131.901 171.294 131.523 171.685C131.146 172.07 130.957 172.591 130.957 173.25C130.957 173.889 131.143 174.403 131.513 174.795C131.884 175.186 132.399 175.382 133.057 175.382C133.703 175.382 134.207 175.193 134.571 174.815C134.942 174.438 135.127 173.916 135.127 173.25ZM134.818 166.713C134.818 166.129 134.664 165.663 134.355 165.312C134.046 164.956 133.61 164.777 133.047 164.777C132.491 164.777 132.059 164.949 131.75 165.292C131.441 165.635 131.287 166.109 131.287 166.713C131.287 167.31 131.441 167.79 131.75 168.154C132.059 168.518 132.495 168.7 133.057 168.7C133.62 168.7 134.053 168.518 134.355 168.154C134.664 167.79 134.818 167.31 134.818 166.713ZM141.026 181.332L139.472 180.519L139.842 179.85C140.302 179.012 140.539 178.178 140.553 177.348L140.553 175.042L143.065 175.042L143.054 177.101C143.048 177.863 142.855 178.631 142.478 179.407C142.1 180.183 141.616 180.824 141.026 181.332ZM155.368 171.377C155.368 173.449 154.939 175.035 154.081 176.133C153.223 177.231 151.967 177.78 150.313 177.78C148.679 177.78 147.43 177.242 146.565 176.164C145.7 175.086 145.258 173.542 145.237 171.531L145.237 168.772C145.237 166.678 145.67 165.089 146.534 164.005C147.406 162.92 148.659 162.378 150.292 162.378C151.926 162.378 153.175 162.917 154.04 163.995C154.905 165.065 155.347 166.606 155.368 168.617L155.368 171.377ZM152.393 168.35C152.393 167.107 152.221 166.205 151.878 165.642C151.541 165.072 151.013 164.787 150.292 164.787C149.592 164.787 149.074 165.059 148.738 165.601C148.408 166.136 148.233 166.977 148.213 168.123L148.213 171.768C148.213 172.99 148.377 173.899 148.707 174.496C149.043 175.086 149.578 175.382 150.313 175.382C151.04 175.382 151.565 175.097 151.888 174.527C152.211 173.957 152.379 173.086 152.393 171.912L152.393 168.35ZM167.475 171.377C167.475 173.449 167.046 175.035 166.189 176.133C165.331 177.231 164.075 177.78 162.42 177.78C160.787 177.78 159.538 177.242 158.673 176.164C157.808 175.086 157.365 173.542 157.345 171.531L157.345 168.772C157.345 166.678 157.777 165.089 158.642 164.005C159.514 162.92 160.766 162.378 162.4 162.378C164.033 162.378 165.283 162.917 166.147 163.995C167.012 165.065 167.455 166.606 167.475 168.617L167.475 171.377ZM164.5 168.35C164.5 167.107 164.328 166.205 163.985 165.642C163.649 165.072 163.12 164.787 162.4 164.787C161.7 164.787 161.181 165.059 160.845 165.601C160.516 166.136 160.341 166.977 160.32 168.123L160.32 171.768C160.32 172.99 160.485 173.899 160.814 174.496C161.151 175.086 161.686 175.382 162.42 175.382C163.148 175.382 163.673 175.097 163.996 174.527C164.318 173.957 164.486 173.086 164.5 171.912L164.5 168.35ZM179.583 171.377C179.583 173.449 179.154 175.035 178.296 176.133C177.438 177.231 176.182 177.78 174.528 177.78C172.894 177.78 171.645 177.242 170.78 176.164C169.916 175.086 169.473 173.542 169.452 171.531L169.452 168.772C169.452 166.678 169.885 165.089 170.749 164.005C171.621 162.92 172.874 162.378 174.507 162.378C176.141 162.378 177.39 162.917 178.255 163.995C179.12 165.065 179.562 166.606 179.583 168.617L179.583 171.377ZM176.608 168.35C176.608 167.107 176.436 166.205 176.093 165.642C175.757 165.072 175.228 164.787 174.507 164.787C173.807 164.787 173.289 165.059 172.953 165.601C172.623 166.136 172.448 166.977 172.428 168.123L172.428 171.768C172.428 172.99 172.592 173.899 172.922 174.496C173.258 175.086 173.794 175.382 174.528 175.382C175.255 175.382 175.781 175.097 176.103 174.527C176.426 173.957 176.594 173.086 176.608 171.912L176.608 168.35Z" fill="white"/>
<defs>
<filter id="filter0_f" x="0.0736389" y="0.573639" width="350.853" height="359.853" filterUnits="userSpaceOnUse" color-interpolation-filters="sRGB">
<feFlood flood-opacity="0" result="BackgroundImageFix"/>
<feBlend mode="normal" in="SourceGraphic" in2="BackgroundImageFix" result="shape"/>
<feGaussianBlur stdDeviation="52.7132" result="effect1_foregroundBlur"/>
</filter>
<filter id="filter1_b" x="88.0864" y="40.1164" width="105.83" height="105.607" filterUnits="userSpaceOnUse" color-interpolation-filters="sRGB">
<feFlood flood-opacity="0" result="BackgroundImageFix"/>
<feGaussianBlur in="BackgroundImage" stdDeviation="18.4496"/>
<feComposite in2="SourceAlpha" operator="in" result="effect1_backgroundBlur"/>
<feBlend mode="normal" in="SourceGraphic" in2="effect1_backgroundBlur" result="shape"/>
</filter>
</defs>
</svg>
