<svg width="369" height="413" viewBox="0 0 369 413" fill="none" xmlns="http://www.w3.org/2000/svg">
<g filter="url(#filter0_d)">
<rect x="258.5" y="292.947" width="147.926" height="192.947" rx="17.5887" transform="rotate(-180 258.5 292.947)" fill="url(#paint0_linear)"/>
<rect x="258.017" y="292.465" width="146.961" height="191.982" rx="17.1064" transform="rotate(-180 258.017 292.465)" stroke="white" stroke-opacity="0.4" stroke-width="0.964733"/>
</g>
<g opacity="0.3" filter="url(#filter1_b)">
<rect x="122.905" y="119.541" width="39.0814" height="38.8096" rx="19.4048" fill="#AB92E2"/>
</g>
<path d="M142.619 131.839L142.81 146.9M142.81 146.9L147.895 142.221M142.81 146.9L137.515 142.353" stroke="white" stroke-width="1.53793" stroke-linecap="round"/>
<path d="M175.466 125.419L175.466 133.581L174.413 133.581L174.413 125.419L175.466 125.419ZM180.506 127.121C181.247 127.121 181.845 127.36 182.3 127.839C182.755 128.31 182.983 128.993 182.983 129.888L182.983 133.581L181.93 133.581L181.93 129.98C181.93 129.348 181.767 128.861 181.443 128.522C181.119 128.182 180.679 128.012 180.124 128.012C179.545 128.012 179.082 128.201 178.734 128.58C178.387 128.95 178.213 129.494 178.213 130.212L178.213 133.581L177.16 133.581L177.16 127.225L178.213 127.225L178.213 128.73C178.375 128.213 178.661 127.816 179.07 127.538C179.487 127.26 179.965 127.121 180.506 127.121ZM187.412 127.144C188.222 127.144 188.894 127.36 189.426 127.792C189.959 128.225 190.287 128.803 190.41 129.529L189.299 129.529C189.222 129.074 189.01 128.719 188.662 128.464C188.323 128.201 187.898 128.07 187.389 128.07C187.018 128.07 186.679 128.155 186.37 128.325C186.069 128.495 185.826 128.757 185.641 129.112C185.456 129.459 185.363 129.892 185.363 130.409C185.363 130.926 185.456 131.362 185.641 131.717C185.826 132.064 186.069 132.323 186.37 132.493C186.679 132.662 187.018 132.747 187.389 132.747C187.898 132.747 188.323 132.616 188.662 132.354C189.01 132.091 189.222 131.732 189.299 131.277L190.41 131.277C190.287 132.01 189.959 132.593 189.426 133.025C188.894 133.45 188.222 133.662 187.412 133.662C186.802 133.662 186.262 133.531 185.791 133.268C185.321 133.006 184.95 132.632 184.68 132.145C184.418 131.651 184.286 131.073 184.286 130.409C184.286 129.745 184.418 129.166 184.68 128.672C184.95 128.178 185.321 127.8 185.791 127.538C186.262 127.275 186.802 127.144 187.412 127.144ZM194.672 127.144C195.282 127.144 195.826 127.275 196.304 127.538C196.79 127.8 197.169 128.178 197.439 128.672C197.717 129.166 197.855 129.745 197.855 130.409C197.855 131.073 197.717 131.651 197.439 132.145C197.169 132.632 196.79 133.006 196.304 133.268C195.826 133.531 195.282 133.662 194.672 133.662C194.062 133.662 193.514 133.531 193.028 133.268C192.549 133.006 192.171 132.632 191.893 132.145C191.616 131.651 191.477 131.073 191.477 130.409C191.477 129.745 191.616 129.166 191.893 128.672C192.171 128.178 192.549 127.8 193.028 127.538C193.514 127.275 194.062 127.144 194.672 127.144ZM194.672 128.07C194.294 128.07 193.942 128.155 193.618 128.325C193.302 128.495 193.043 128.757 192.843 129.112C192.65 129.459 192.553 129.892 192.553 130.409C192.553 130.918 192.65 131.35 192.843 131.705C193.043 132.053 193.302 132.311 193.618 132.481C193.942 132.651 194.294 132.736 194.672 132.736C195.05 132.736 195.397 132.651 195.714 132.481C196.038 132.311 196.296 132.053 196.489 131.705C196.69 131.35 196.79 130.918 196.79 130.409C196.79 129.892 196.69 129.459 196.489 129.112C196.296 128.757 196.038 128.495 195.714 128.325C195.397 128.155 195.05 128.07 194.672 128.07ZM207.043 127.121C207.783 127.121 208.378 127.36 208.825 127.839C209.281 128.31 209.508 128.993 209.508 129.888L209.508 133.581L208.455 133.581L208.455 129.98C208.455 129.355 208.301 128.877 207.992 128.545C207.691 128.213 207.274 128.047 206.742 128.047C206.186 128.047 205.738 128.232 205.399 128.603C205.067 128.966 204.901 129.502 204.901 130.212L204.901 133.581L203.847 133.581L203.847 129.98C203.847 129.355 203.693 128.877 203.384 128.545C203.076 128.213 202.659 128.047 202.134 128.047C201.571 128.047 201.119 128.232 200.779 128.603C200.448 128.966 200.282 129.502 200.282 130.212L200.282 133.581L199.228 133.581L199.228 127.225L200.282 127.225L200.282 128.672C200.436 128.171 200.71 127.789 201.104 127.526C201.505 127.256 201.964 127.121 202.481 127.121C203.022 127.121 203.488 127.26 203.882 127.538C204.283 127.808 204.569 128.209 204.739 128.742C204.916 128.225 205.213 127.827 205.63 127.549C206.047 127.264 206.518 127.121 207.043 127.121ZM195.013 147.05C195.013 147.274 194.997 147.467 194.966 147.629L189.884 147.629C189.907 148.354 190.112 148.898 190.498 149.261C190.891 149.624 191.37 149.805 191.933 149.805C192.443 149.805 192.867 149.678 193.207 149.423C193.554 149.161 193.766 148.813 193.843 148.381L194.966 148.381C194.889 148.821 194.715 149.215 194.445 149.562C194.183 149.909 193.839 150.179 193.415 150.372C192.991 150.565 192.512 150.662 191.979 150.662C191.37 150.662 190.83 150.531 190.359 150.268C189.888 150.006 189.517 149.632 189.247 149.145C188.985 148.651 188.854 148.073 188.854 147.409C188.854 146.745 188.985 146.166 189.247 145.672C189.517 145.178 189.888 144.8 190.359 144.538C190.83 144.275 191.37 144.144 191.979 144.144C192.597 144.144 193.133 144.275 193.589 144.538C194.052 144.8 194.403 145.151 194.642 145.591C194.889 146.031 195.013 146.517 195.013 147.05ZM193.948 147.119C193.971 146.649 193.894 146.255 193.716 145.939C193.538 145.622 193.295 145.387 192.987 145.232C192.678 145.078 192.342 145.001 191.979 145.001C191.401 145.001 190.914 145.182 190.521 145.545C190.127 145.9 189.915 146.425 189.884 147.119L193.948 147.119Z" fill="white"/>
<path d="M182.236 154.947L173.461 154.947L173.461 153.205L177.602 148.791C178.171 148.17 178.59 147.628 178.86 147.165C179.135 146.701 179.273 146.262 179.273 145.846C179.273 145.277 179.129 144.831 178.842 144.509C178.555 144.181 178.144 144.017 177.611 144.017C177.036 144.017 176.582 144.216 176.248 144.615C175.92 145.007 175.756 145.526 175.756 146.171L173.206 146.171C173.206 145.391 173.39 144.679 173.76 144.034C174.135 143.389 174.662 142.885 175.342 142.522C176.022 142.153 176.793 141.968 177.655 141.968C178.974 141.968 179.997 142.284 180.724 142.918C181.456 143.551 181.823 144.445 181.823 145.599C181.823 146.233 181.659 146.877 181.33 147.534C181.002 148.19 180.439 148.955 179.642 149.829L176.732 152.898L182.236 152.898L182.236 154.947ZM184.566 158.156L183.239 157.461L183.555 156.89C183.948 156.175 184.15 155.462 184.162 154.753L184.162 152.783L186.307 152.783L186.299 154.542C186.293 155.193 186.129 155.849 185.806 156.512C185.484 157.174 185.07 157.722 184.566 158.156ZM194.371 154.947L191.829 154.947L191.829 145.151L188.796 146.092L188.796 144.025L194.098 142.126L194.371 142.126L194.371 154.947ZM207.314 154.947L198.539 154.947L198.539 153.205L202.68 148.791C203.249 148.17 203.668 147.628 203.938 147.165C204.213 146.701 204.351 146.262 204.351 145.846C204.351 145.277 204.207 144.831 203.92 144.509C203.633 144.181 203.222 144.017 202.689 144.017C202.114 144.017 201.66 144.216 201.326 144.615C200.998 145.007 200.834 145.526 200.834 146.171L198.284 146.171C198.284 145.391 198.468 144.679 198.838 144.034C199.213 143.389 199.74 142.885 200.42 142.522C201.1 142.153 201.871 141.968 202.733 141.968C204.052 141.968 205.075 142.284 205.802 142.918C206.534 143.551 206.901 144.445 206.901 145.599C206.901 146.233 206.737 146.877 206.408 147.534C206.08 148.19 205.517 148.955 204.72 149.829L201.81 152.898L207.314 152.898L207.314 154.947ZM211.465 147.42L212.819 147.42C213.463 147.42 213.941 147.258 214.252 146.936C214.563 146.614 214.718 146.186 214.718 145.652C214.718 145.136 214.563 144.735 214.252 144.448C213.947 144.16 213.525 144.017 212.986 144.017C212.499 144.017 212.092 144.151 211.763 144.421C211.435 144.685 211.271 145.031 211.271 145.459L208.73 145.459C208.73 144.79 208.909 144.193 209.266 143.665C209.63 143.131 210.134 142.715 210.779 142.416C211.429 142.117 212.145 141.968 212.924 141.968C214.278 141.968 215.339 142.293 216.107 142.944C216.875 143.589 217.259 144.48 217.259 145.617C217.259 146.203 217.08 146.743 216.723 147.235C216.365 147.727 215.896 148.105 215.316 148.369C216.037 148.627 216.573 149.014 216.925 149.53C217.283 150.046 217.461 150.655 217.461 151.359C217.461 152.496 217.045 153.408 216.213 154.094C215.386 154.779 214.29 155.122 212.924 155.122C211.646 155.122 210.6 154.785 209.785 154.111C208.976 153.437 208.572 152.546 208.572 151.438L211.113 151.438C211.113 151.919 211.292 152.312 211.649 152.616C212.013 152.921 212.458 153.074 212.986 153.074C213.59 153.074 214.061 152.915 214.401 152.599C214.747 152.276 214.92 151.851 214.92 151.324C214.92 150.046 214.217 149.407 212.81 149.407L211.465 149.407L211.465 147.42Z" fill="white"/>
<path d="M128.209 202.373L128.982 203.967L130.748 204.203L129.453 205.466L129.734 207.224L128.162 206.411L126.569 207.262L126.893 205.496L125.627 204.264L127.399 203.986L128.209 202.373Z" fill="white"/>
<path d="M137.25 202.416L138.022 204.01L139.788 204.246L138.493 205.509L138.775 207.268L137.202 206.454L135.61 207.305L135.933 205.539L134.668 204.307L136.44 204.029L137.25 202.416Z" fill="white"/>
<path d="M146.29 202.459L147.062 204.052L148.828 204.288L147.533 205.551L147.814 207.31L146.242 206.497L144.65 207.347L144.973 205.582L143.707 204.349L145.479 204.071L146.29 202.459Z" fill="white"/>
<path d="M155.331 202.499L156.103 204.093L157.869 204.329L156.574 205.592L156.856 207.351L155.283 206.537L153.691 207.388L154.014 205.622L152.749 204.39L154.521 204.112L155.331 202.499Z" fill="white"/>
<path d="M170.863 203.63L166.823 203.63L166.823 206.061C167.008 205.822 167.271 205.633 167.61 205.494C167.95 205.347 168.324 205.274 168.733 205.274C169.304 205.274 169.779 205.397 170.157 205.644C170.535 205.884 170.813 206.204 170.991 206.605C171.176 207.007 171.268 207.45 171.268 207.937C171.268 208.793 171.029 209.488 170.551 210.02C170.072 210.545 169.378 210.808 168.467 210.808C167.61 210.808 166.919 210.58 166.395 210.125C165.87 209.669 165.584 209.063 165.538 208.307L166.834 208.307C166.904 208.724 167.074 209.052 167.344 209.291C167.622 209.53 167.973 209.65 168.397 209.65C168.922 209.65 169.316 209.492 169.578 209.175C169.841 208.859 169.972 208.438 169.972 207.913C169.972 207.42 169.837 207.034 169.567 206.756C169.296 206.47 168.911 206.327 168.409 206.327C168.054 206.327 167.741 206.405 167.471 206.559C167.209 206.713 167.016 206.918 166.892 207.173L165.607 207.173L165.607 202.461L170.863 202.461L170.863 203.63ZM176.907 204.788C176.768 203.877 176.293 203.422 175.483 203.422C174.896 203.422 174.456 203.657 174.163 204.128C173.87 204.591 173.723 205.32 173.723 206.316L173.735 206.709C173.85 206.293 174.101 205.961 174.487 205.714C174.873 205.467 175.328 205.343 175.853 205.343C176.656 205.343 177.285 205.583 177.74 206.061C178.195 206.54 178.423 207.215 178.423 208.087C178.423 208.612 178.319 209.083 178.111 209.499C177.902 209.909 177.59 210.237 177.173 210.484C176.756 210.723 176.243 210.842 175.633 210.842C174.452 210.842 173.642 210.476 173.202 209.743C172.762 209.009 172.542 208.002 172.542 206.721C172.542 205.255 172.778 204.159 173.248 203.433C173.719 202.708 174.491 202.345 175.564 202.345C176.366 202.345 176.98 202.573 177.404 203.028C177.837 203.483 178.087 204.07 178.157 204.788L176.907 204.788ZM173.85 207.937C173.85 208.438 173.997 208.859 174.29 209.198C174.584 209.53 175.016 209.696 175.587 209.696C176.073 209.696 176.459 209.554 176.745 209.268C177.038 208.982 177.184 208.585 177.184 208.076C177.184 207.528 177.038 207.107 176.745 206.814C176.451 206.52 176.054 206.374 175.552 206.374C175.097 206.374 174.699 206.509 174.36 206.779C174.02 207.049 173.85 207.435 173.85 207.937ZM179.442 209.002L179.442 207.89L183.506 202.519L184.918 202.519L184.918 207.844L186.064 207.844L186.064 209.002L184.918 209.002L184.918 210.761L183.587 210.761L183.587 209.002L179.442 209.002ZM183.68 204.093L180.809 207.844L183.68 207.844L183.68 204.093ZM168.073 219.333C168.613 219.333 169.077 219.43 169.462 219.623C169.848 219.808 170.138 220.067 170.331 220.399C170.531 220.73 170.632 221.101 170.632 221.51C170.632 222.027 170.485 222.459 170.192 222.806C169.906 223.146 169.501 223.351 168.976 223.42L168.976 223.478C169.54 223.64 169.98 223.883 170.296 224.207C170.62 224.524 170.782 224.964 170.782 225.527C170.782 226.214 170.555 226.773 170.099 227.206C169.644 227.63 168.992 227.842 168.143 227.842C167.271 227.842 166.568 227.622 166.036 227.183C165.503 226.735 165.198 226.075 165.121 225.203L166.429 225.203C166.476 225.666 166.642 226.036 166.927 226.314C167.213 226.584 167.599 226.719 168.085 226.719C168.54 226.719 168.887 226.6 169.127 226.361C169.374 226.121 169.497 225.813 169.497 225.434C169.497 224.979 169.32 224.632 168.965 224.393C168.617 224.153 168.112 224.034 167.448 224.034L167.135 224.034L167.135 222.945L167.448 222.945C168.706 222.961 169.335 222.532 169.335 221.66C169.335 221.282 169.219 220.985 168.988 220.769C168.756 220.553 168.44 220.445 168.038 220.445C167.637 220.445 167.301 220.568 167.031 220.815C166.761 221.055 166.599 221.406 166.545 221.869L165.248 221.869C165.302 221.066 165.573 220.445 166.059 220.005C166.545 219.557 167.217 219.333 168.073 219.333Z" fill="white"/>
<path d="M130.304 231.518L132.238 231.518C133.159 231.518 133.842 231.288 134.286 230.828C134.73 230.367 134.951 229.756 134.951 228.994C134.951 228.257 134.73 227.683 134.286 227.273C133.85 226.862 133.247 226.657 132.477 226.657C131.782 226.657 131.2 226.85 130.731 227.235C130.262 227.612 130.027 228.106 130.027 228.717L126.397 228.717C126.397 227.763 126.652 226.908 127.163 226.155C127.682 225.393 128.403 224.798 129.324 224.371C130.253 223.944 131.275 223.73 132.389 223.73C134.323 223.73 135.839 224.195 136.936 225.125C138.033 226.046 138.582 227.319 138.582 228.943C138.582 229.781 138.326 230.551 137.816 231.255C137.305 231.958 136.635 232.498 135.806 232.875C136.836 233.244 137.602 233.796 138.104 234.533C138.615 235.27 138.871 236.141 138.871 237.146C138.871 238.771 138.276 240.073 137.087 241.053C135.906 242.033 134.34 242.522 132.389 242.522C130.563 242.522 129.068 242.041 127.904 241.078C126.749 240.115 126.171 238.842 126.171 237.259L129.801 237.259C129.801 237.946 130.057 238.507 130.567 238.942C131.087 239.378 131.723 239.596 132.477 239.596C133.339 239.596 134.014 239.37 134.499 238.917C134.993 238.457 135.24 237.85 135.24 237.096C135.24 235.27 134.235 234.357 132.226 234.357L130.304 234.357L130.304 231.518ZM142.476 246.856L140.579 245.864L141.031 245.047C141.592 244.026 141.881 243.008 141.898 241.995L141.898 239.181L144.963 239.181L144.951 241.693C144.942 242.623 144.708 243.561 144.247 244.507C143.786 245.454 143.196 246.237 142.476 246.856ZM151.357 231.518L153.291 231.518C154.213 231.518 154.895 231.288 155.339 230.828C155.783 230.367 156.005 229.756 156.005 228.994C156.005 228.257 155.783 227.683 155.339 227.273C154.904 226.862 154.301 226.657 153.53 226.657C152.835 226.657 152.253 226.85 151.784 227.235C151.315 227.612 151.081 228.106 151.081 228.717L147.45 228.717C147.45 227.763 147.706 226.908 148.217 226.155C148.736 225.393 149.456 224.798 150.377 224.371C151.307 223.944 152.328 223.73 153.442 223.73C155.377 223.73 156.892 224.195 157.989 225.125C159.087 226.046 159.635 227.319 159.635 228.943C159.635 229.781 159.38 230.551 158.869 231.255C158.358 231.958 157.688 232.498 156.859 232.875C157.889 233.244 158.655 233.796 159.158 234.533C159.669 235.27 159.924 236.141 159.924 237.146C159.924 238.771 159.329 240.073 158.14 241.053C156.959 242.033 155.393 242.522 153.442 242.522C151.617 242.522 150.122 242.041 148.958 241.078C147.802 240.115 147.224 238.842 147.224 237.259L150.854 237.259C150.854 237.946 151.11 238.507 151.621 238.942C152.14 239.378 152.776 239.596 153.53 239.596C154.393 239.596 155.067 239.37 155.553 238.917C156.047 238.457 156.294 237.85 156.294 237.096C156.294 235.27 155.289 234.357 153.279 234.357L151.357 234.357L151.357 231.518ZM173.176 235.387L175.249 235.387L175.249 238.314L173.176 238.314L173.176 242.271L169.546 242.271L169.546 238.314L162.047 238.314L161.884 236.028L169.509 223.982L173.176 223.982L173.176 235.387ZM165.501 235.387L169.546 235.387L169.546 228.931L169.308 229.345L165.501 235.387ZM177.749 233.277L178.804 223.982L189.054 223.982L189.054 227.009L181.781 227.009L181.329 230.941C182.192 230.48 183.109 230.25 184.08 230.25C185.822 230.25 187.187 230.79 188.175 231.87C189.163 232.951 189.657 234.462 189.657 236.405C189.657 237.586 189.406 238.645 188.904 239.583C188.41 240.513 187.698 241.237 186.768 241.756C185.839 242.267 184.742 242.522 183.477 242.522C182.372 242.522 181.346 242.301 180.399 241.857C179.453 241.404 178.704 240.772 178.151 239.96C177.607 239.148 177.318 238.222 177.284 237.184L180.877 237.184C180.952 237.946 181.216 238.54 181.668 238.968C182.129 239.386 182.728 239.596 183.464 239.596C184.285 239.596 184.917 239.303 185.361 238.716C185.805 238.122 186.027 237.284 186.027 236.204C186.027 235.166 185.772 234.37 185.261 233.817C184.75 233.265 184.026 232.988 183.088 232.988C182.225 232.988 181.526 233.214 180.99 233.667L180.638 233.993L177.749 233.277Z" fill="white"/>
<defs>
<filter id="filter0_d" x="0.573792" y="0.000488281" width="367.926" height="412.947" filterUnits="userSpaceOnUse" color-interpolation-filters="sRGB">
<feFlood flood-opacity="0" result="BackgroundImageFix"/>
<feColorMatrix in="SourceAlpha" type="matrix" values="0 0 0 0 0 0 0 0 0 0 0 0 0 0 0 0 0 0 127 0"/>
<feOffset dy="10"/>
<feGaussianBlur stdDeviation="55"/>
<feColorMatrix type="matrix" values="0 0 0 0 0 0 0 0 0 0 0 0 0 0 0 0 0 0 0.2 0"/>
<feBlend mode="normal" in2="BackgroundImageFix" result="effect1_dropShadow"/>
<feBlend mode="normal" in="SourceGraphic" in2="effect1_dropShadow" result="shape"/>
</filter>
<filter id="filter1_b" x="77.8839" y="74.5199" width="129.123" height="128.851" filterUnits="userSpaceOnUse" color-interpolation-filters="sRGB">
<feFlood flood-opacity="0" result="BackgroundImageFix"/>
<feGaussianBlur in="BackgroundImage" stdDeviation="22.5104"/>
<feComposite in2="SourceAlpha" operator="in" result="effect1_backgroundBlur"/>
<feBlend mode="normal" in="SourceGraphic" in2="effect1_backgroundBlur" result="shape"/>
</filter>
<linearGradient id="paint0_linear" x1="258.5" y1="292.894" x2="399.5" y2="490.894" gradientUnits="userSpaceOnUse">
<stop stop-color="#7E54EC"/>
<stop offset="1" stop-color="#A587FF" stop-opacity="0"/>
</linearGradient>
</defs>
</svg>
